<svg xmlns="http://www.w3.org/2000/svg" viewBox="0 0 200 200">
  <!-- Background circle -->
  <circle cx="100" cy="100" r="90" fill="#e6f7ff"/>
  
  <!-- House outline -->
  <path d="M60,75 L100,45 L140,75 L140,140 L60,140 Z" fill="#ffffff" stroke="#4d4d4d" stroke-width="2"/>
  
  <!-- Roof with solar panels -->
  <path d="M65,75 L100,50 L135,75" fill="none" stroke="#4d4d4d" stroke-width="2"/>
  <path d="M70,75 L80,67 L90,75" fill="#7cb5ec" stroke="#4d4d4d" stroke-width="1"/>
  <path d="M90,75 L100,67 L110,75" fill="#7cb5ec" stroke="#4d4d4d" stroke-width="1"/>
  <path d="M110,75 L120,67 L130,75" fill="#7cb5ec" stroke="#4d4d4d" stroke-width="1"/>
  
  <!-- Window -->
  <rect x="70" y="85" width="25" height="20" fill="#a5d8ff" stroke="#4d4d4d" stroke-width="1"/>
  <line x1="82.5" y1="85" x2="82.5" y2="105" stroke="#4d4d4d" stroke-width="1"/>
  <line x1="70" y1="95" x2="95" y2="95" stroke="#4d4d4d" stroke-width="1"/>
  
  <!-- Door -->
  <rect x="105" y="110" width="20" height="30" fill="#f0f0f0" stroke="#4d4d4d" stroke-width="1"/>
  <circle cx="110" cy="125" r="2" fill="#4d4d4d"/>
  
  <!-- Digital elements -->
  <!-- Central control hub -->
  <circle cx="85" cy="115" r="8" fill="#09c" opacity="0.8"/>
  <circle cx="85" cy="115" r="5" fill="#ffffff" opacity="0.6"/>
  
  <!-- Digital connections -->
  <path d="M85,115 L70,95" stroke="#09c" stroke-width="1" stroke-dasharray="2,1"/>
  <path d="M85,115 L105,125" stroke="#09c" stroke-width="1" stroke-dasharray="2,1"/>
  <path d="M85,115 L100,67" stroke="#09c" stroke-width="1" stroke-dasharray="2,1"/>
  
  <!-- Smart devices -->
  <rect x="65" y="120" width="10" height="15" rx="2" fill="#f0f0f0" stroke="#4d4d4d" stroke-width="1"/>
  <circle cx="70" cy="125" r="3" fill="#09c" opacity="0.6"/>
  
  <!-- Digital waves -->
  <path d="M100,30 Q110,28 120,30" stroke="#09c" stroke-width="1" fill="none"/>
  <path d="M95,25 Q110,20 125,25" stroke="#09c" stroke-width="1" fill="none"/>
  <path d="M90,20 Q110,12 130,20" stroke="#09c" stroke-width="1" fill="none"/>
  
  <!-- Smart home indicators -->
  <circle cx="130" cy="100" r="12" fill="#ffffff" stroke="#4d4d4d" stroke-width="1"/>
  <path d="M124,100 L136,100" stroke="#09c" stroke-width="2"/>
  <path d="M130,94 L130,106" stroke="#09c" stroke-width="2"/>
  <circle cx="130" cy="100" r="3" fill="#09c"/>
  
  <!-- Energy efficiency indicator -->
  <path d="M150,90 L155,100 L145,100 L150,110" fill="none" stroke="#00cc66" stroke-width="2"/>
</svg>
