<svg xmlns="http://www.w3.org/2000/svg" xmlns:xlink="http://www.w3.org/1999/xlink" width="230.401" height="37.249" viewBox="0 0 230.401 37.249"><defs><clipPath id="a"><rect width="230.401" height="37.249" transform="translate(0 0)" fill="#a59366"/></clipPath></defs><g transform="translate(0 0)"><g clip-path="url(#a)"><path d="M39.591,8.291,25.606.521a4.089,4.089,0,0,0-4,0L7.625,8.291a4.116,4.116,0,0,0-2.117,3.6v5.395A11.01,11.01,0,0,1,8.4,15.754V11.887a1.228,1.228,0,0,1,.631-1.071L23.013,3.046a1.215,1.215,0,0,1,1.19,0l13.985,7.769a1.226,1.226,0,0,1,.631,1.071V29.159a1.228,1.228,0,0,1-1.226,1.226H22.29a11.038,11.038,0,0,1-1.743,2.888H37.592a4.119,4.119,0,0,0,4.114-4.114V11.887a4.117,4.117,0,0,0-2.116-3.6" transform="translate(-0.993 0)" fill="#a59366"/><path d="M10.257,33.71H22.925A11.046,11.046,0,0,0,9.031,19.079V32.484a1.228,1.228,0,0,0,1.226,1.226" transform="translate(-1.628 -3.325)" fill="#a59366"/><path d="M4.515,32.959V21.082A11.057,11.057,0,1,0,19.554,37.073H8.629a4.119,4.119,0,0,1-4.114-4.114" transform="translate(0 -3.8)" fill="#a59366"/><path d="M71.637,33.193l1.428-1.682a5.42,5.42,0,0,0,3.6,1.576c1.555,0,2.408-.7,2.408-1.783,0-1.136-.892-1.5-2.146-2.032l-1.889-.82a3.963,3.963,0,0,1-2.793-3.663c0-2.2,1.944-3.9,4.64-3.9a6.058,6.058,0,0,1,4.259,1.762l-1.259,1.554a4.451,4.451,0,0,0-3-1.187c-1.309,0-2.163.612-2.163,1.622,0,1.086,1.053,1.487,2.2,1.956l1.864.782c1.644.684,2.793,1.724,2.793,3.727,0,2.239-1.86,4.107-4.961,4.107a7.121,7.121,0,0,1-4.977-2.024" transform="translate(-12.914 -3.767)" fill="#a59366"/><path d="M93.688,28c0-4.47,2.493-7.106,6.093-7.106s6.092,2.649,6.092,7.106-2.493,7.217-6.092,7.217S93.688,32.471,93.688,28m9.667,0c0-3.1-1.4-4.977-3.574-4.977S96.206,24.9,96.206,28s1.4,5.087,3.575,5.087S103.355,31.1,103.355,28" transform="translate(-16.889 -3.767)" fill="#a59366"/><path d="M119.685,21.2h2.45V32.958h5.738V35.02h-8.188Z" transform="translate(-21.575 -3.822)" fill="#a59366"/><path d="M140.359,21.2h8.315v2.062H142.81v3.54h4.969v2.062H142.81v4.09h6.076V35.02h-8.526Z" transform="translate(-25.302 -3.822)" fill="#a59366"/><path d="M174.852,21.2h2.45V32.958h5.738V35.02h-8.188Z" transform="translate(-31.52 -3.822)" fill="#a59366"/><rect width="2.45" height="13.817" transform="translate(160.279 17.381)" fill="#a59366"/><path d="M208.293,21.2h2.594l1.944,6.946c.448,1.568.752,2.925,1.217,4.5h.084c.465-1.571.782-2.928,1.216-4.5l1.919-6.946h2.5L215.493,35.02h-2.907Z" transform="translate(-37.548 -3.822)" fill="#a59366"/><rect width="2.45" height="13.817" transform="translate(190.245 17.381)" fill="#a59366"/><path d="M246.054,21.2h2.517l4.294,7.765,1.428,2.95h.084c-.118-1.428-.313-3.178-.313-4.716v-6H256.4V35.02h-2.518l-4.293-7.778L248.157,24.3h-.084c.117,1.462.312,3.127.312,4.665v6.05h-2.332Z" transform="translate(-44.355 -3.822)" fill="#a59366"/><path d="M267.749,28.1c0-4.521,2.864-7.208,6.541-7.208a5.677,5.677,0,0,1,4.174,1.749l-1.309,1.58a3.74,3.74,0,0,0-2.79-1.2c-2.45,0-4.1,1.9-4.1,5,0,3.153,1.462,5.062,4.233,5.062a3.1,3.1,0,0,0,1.97-.608V29.5h-2.6V27.485h4.8v6.093a6.283,6.283,0,0,1-4.412,1.639c-3.726,0-6.506-2.544-6.506-7.115" transform="translate(-48.266 -3.767)" fill="#a59366"/></g></g></svg>